<svg width="780" height="540" viewBox="0 0 780 540" fill="none" xmlns="http://www.w3.org/2000/svg">
  <defs>
    <linearGradient id="lumen-bg" x1="70" y1="40" x2="710" y2="500" gradientUnits="userSpaceOnUse">
      <stop offset="0" stop-color="#0A0722" />
      <stop offset="0.55" stop-color="#12163C" />
      <stop offset="1" stop-color="#051322" />
    </linearGradient>
    <radialGradient id="lumen-glow" cx="0" cy="0" r="1" gradientTransform="translate(520 200) rotate(35) scale(230 200)" gradientUnits="userSpaceOnUse">
      <stop stop-color="#FFD166" stop-opacity="0.9" />
      <stop offset="1" stop-color="#FFD166" stop-opacity="0" />
    </radialGradient>
  </defs>
  <rect width="780" height="540" rx="32" fill="url(#lumen-bg)" />
  <rect x="34" y="34" width="712" height="472" rx="28" fill="rgba(9, 10, 30, 0.92)" stroke="rgba(255, 255, 255, 0.1)" />
  <circle cx="500" cy="200" r="170" fill="url(#lumen-glow)" />
  <g opacity="0.75">
    <path d="M160 360C200 260 300 240 380 260C460 280 520 240 600 180" stroke="#FFD166" stroke-width="3" stroke-linecap="round" />
    <path d="M200 320C260 280 320 270 380 290C460 320 520 300 580 240" stroke="#6C5CE7" stroke-width="2" stroke-linecap="round" stroke-dasharray="14 16" />
    <circle cx="280" cy="280" r="10" fill="#FFD166" />
    <circle cx="420" cy="300" r="10" fill="#6C5CE7" />
    <circle cx="560" cy="240" r="10" fill="#FF54B0" />
  </g>
  <rect x="140" y="120" width="200" height="90" rx="18" fill="#13173A" stroke="#FFD166" stroke-opacity="0.35" />
  <text x="158" y="152" fill="#FFE6A3" font-family="Space Grotesk" font-size="16" letter-spacing="0.18em">LUMEN AR</text>
  <text x="158" y="182" fill="#FFFFFF" font-family="Space Grotesk" font-size="26" font-weight="600">Gallery mode</text>
  <rect x="380" y="120" width="260" height="120" rx="20" fill="rgba(18, 20, 44, 0.92)" stroke="rgba(255, 209, 102, 0.3)" />
  <text x="400" y="154" fill="#FFD166" font-family="Space Grotesk" font-size="14" letter-spacing="0.22em">SCENE</text>
  <text x="400" y="182" fill="#FFFFFF" font-family="Space Grotesk" font-size="22" font-weight="600">Holographic reveal</text>
  <text x="400" y="210" fill="#FFE6A3" font-family="Space Grotesk" font-size="14" opacity="0.8">Soundscape: Aurora Bloom · Intensity 74%</text>
</svg>
