<svg width="660" height="460" viewBox="0 0 660 460" fill="none" xmlns="http://www.w3.org/2000/svg">
  <defs>
    <linearGradient id="lumen-grid" x1="60" y1="40" x2="600" y2="420" gradientUnits="userSpaceOnUse">
      <stop offset="0" stop-color="#090722" />
      <stop offset="1" stop-color="#040A16" />
    </linearGradient>
  </defs>
  <rect width="660" height="460" rx="28" fill="url(#lumen-grid)" />
  <rect x="48" y="48" width="564" height="364" rx="20" fill="rgba(11, 12, 30, 0.9)" stroke="rgba(255, 255, 255, 0.08)" />
  <g opacity="0.5">
    <path d="M120 190H540" stroke="#FFD166" stroke-dasharray="12 12" />
    <path d="M120 230H540" stroke="#FFD166" stroke-dasharray="12 12" />
    <path d="M120 270H540" stroke="#FFD166" stroke-dasharray="12 12" />
    <path d="M120 310H540" stroke="#FFD166" stroke-dasharray="12 12" />
  </g>
  <g opacity="0.75">
    <path d="M160 300C220 260 300 260 360 280C420 300 480 280 520 240" stroke="#FFD166" stroke-width="3" stroke-linecap="round" />
    <path d="M200 320C260 280 320 270 380 290C440 310 500 300 560 250" stroke="#6C5CE7" stroke-width="2" stroke-linecap="round" stroke-dasharray="12 18" />
    <circle cx="280" cy="280" r="9" fill="#FFD166" />
    <circle cx="360" cy="300" r="9" fill="#6C5CE7" />
    <circle cx="440" cy="280" r="9" fill="#FF54B0" />
  </g>
  <rect x="140" y="120" width="200" height="60" rx="16" fill="#12163A" stroke="#FFD166" stroke-opacity="0.35" />
  <text x="158" y="148" fill="#FFE6A3" font-family="Space Grotesk" font-size="16" letter-spacing="0.18em">STORY</text>
  <text x="158" y="174" fill="#FFFFFF" font-family="Space Grotesk" font-size="22" font-weight="600">Scene 04 · Echo</text>
  <rect x="360" y="120" width="200" height="120" rx="18" fill="rgba(16, 18, 42, 0.92)" stroke="rgba(255, 209, 102, 0.3)" />
  <text x="380" y="152" fill="#FFD166" font-family="Space Grotesk" font-size="14" letter-spacing="0.2em">CUE</text>
  <text x="380" y="180" fill="#FFFFFF" font-family="Space Grotesk" font-size="22" font-weight="600">Gesture: Bloom</text>
  <text x="380" y="206" fill="#FFE6A3" font-family="Space Grotesk" font-size="14" opacity="0.75">Light field intensifies · Audio resonance +12%</text>
</svg>
