<svg width="680" height="480" viewBox="0 0 680 480" fill="none" xmlns="http://www.w3.org/2000/svg">
  <defs>
    <linearGradient id="gradient" x1="40" y1="40" x2="620" y2="440" gradientUnits="userSpaceOnUse">
      <stop offset="0" stop-color="#050B20" />
      <stop offset="0.5" stop-color="#10163B" />
      <stop offset="1" stop-color="#040910" />
    </linearGradient>
    <radialGradient id="pulse" cx="0" cy="0" r="1" gradientTransform="translate(480 120) rotate(45) scale(200 180)" gradientUnits="userSpaceOnUse">
      <stop stop-color="#00F5FF" stop-opacity="0.8" />
      <stop offset="1" stop-color="#00F5FF" stop-opacity="0" />
    </radialGradient>
  </defs>
  <rect width="680" height="480" rx="28" fill="url(#gradient)" />
  <rect x="40" y="40" width="600" height="400" rx="22" fill="rgba(8, 10, 28, 0.9)" stroke="rgba(0, 245, 255, 0.25)" />
  <circle cx="460" cy="160" r="160" fill="url(#pulse)" />
  <g opacity="0.65">
    <path d="M120 340C200 280 260 260 340 280C420 300 480 260 540 200" stroke="#6C5CE7" stroke-width="3" stroke-linecap="round" />
    <path d="M140 300C220 240 300 260 360 300C420 340 480 320 520 260" stroke="#FF54B0" stroke-width="2" stroke-linecap="round" stroke-dasharray="12 16" />
    <circle cx="360" cy="300" r="12" fill="#00F5FF" />
    <circle cx="250" cy="280" r="9" fill="#6C5CE7" />
  </g>
  <rect x="120" y="120" width="160" height="60" rx="14" fill="#10143A" stroke="#6C5CE7" stroke-opacity="0.45" />
  <text x="140" y="148" fill="#9AA9FF" font-family="Space Grotesk" font-size="16" letter-spacing="0.18em">STATUS</text>
  <text x="140" y="174" fill="#FFFFFF" font-family="Space Grotesk" font-size="22" font-weight="600">Operational</text>
  <rect x="320" y="120" width="240" height="220" rx="18" fill="rgba(14, 18, 50, 0.9)" stroke="#00F5FF" stroke-opacity="0.25" />
  <text x="340" y="154" fill="#00F5FF" font-family="Space Grotesk" font-size="14" letter-spacing="0.28em">AI BRIEF</text>
  <text x="340" y="180" fill="#FFFFFF" font-family="Space Grotesk" font-size="20" font-weight="500">Anomaly-free orbit</text>
  <text x="340" y="210" fill="#9AA9FF" font-family="Space Grotesk" font-size="14" opacity="0.8">Telemetry healthy · Resonance stable · No alerts</text>
  <rect x="340" y="240" width="200" height="10" rx="5" fill="#1A214A" />
  <rect x="340" y="240" width="150" height="10" rx="5" fill="#00F5FF" />
</svg>
