<svg width="780" height="540" viewBox="0 0 780 540" fill="none" xmlns="http://www.w3.org/2000/svg">
  <defs>
    <linearGradient id="orion-bg" x1="80" y1="40" x2="700" y2="500" gradientUnits="userSpaceOnUse">
      <stop offset="0" stop-color="#0B0824" />
      <stop offset="0.6" stop-color="#121A3D" />
      <stop offset="1" stop-color="#03131F" />
    </linearGradient>
    <radialGradient id="orion-glow" cx="0" cy="0" r="1" gradientTransform="translate(540 180) rotate(35) scale(240 200)" gradientUnits="userSpaceOnUse">
      <stop stop-color="#6C5CE7" stop-opacity="0.8" />
      <stop offset="1" stop-color="#6C5CE7" stop-opacity="0" />
    </radialGradient>
  </defs>
  <rect width="780" height="540" rx="32" fill="url(#orion-bg)" />
  <rect x="36" y="36" width="708" height="468" rx="26" fill="rgba(8, 12, 36, 0.9)" stroke="rgba(255, 255, 255, 0.08)" />
  <circle cx="520" cy="170" r="170" fill="url(#orion-glow)" />
  <g opacity="0.75">
    <path d="M160 360L300 220L420 320L520 200L640 320" stroke="#00F5FF" stroke-width="3" stroke-linecap="round" stroke-linejoin="round" />
    <path d="M220 300L340 180L460 280L560 160L620 240" stroke="#FF54B0" stroke-width="2" stroke-linecap="round" stroke-dasharray="10 16" />
    <circle cx="300" cy="220" r="12" fill="#00F5FF" />
    <circle cx="420" cy="320" r="10" fill="#6C5CE7" />
    <circle cx="520" cy="200" r="10" fill="#FF54B0" />
  </g>
  <g opacity="0.4">
    <path d="M120 220H660" stroke="#00F5FF" stroke-width="1" stroke-dasharray="6 6" />
    <path d="M120 260H660" stroke="#00F5FF" stroke-width="1" stroke-dasharray="6 6" />
    <path d="M120 300H660" stroke="#00F5FF" stroke-width="1" stroke-dasharray="6 6" />
    <path d="M120 340H660" stroke="#00F5FF" stroke-width="1" stroke-dasharray="6 6" />
  </g>
  <rect x="140" y="120" width="200" height="90" rx="18" fill="#121636" stroke="#6C5CE7" stroke-opacity="0.4" />
  <text x="160" y="152" fill="#9EA8FF" font-family="Space Grotesk" font-size="16" letter-spacing="0.2em">ORION MATRIX</text>
  <text x="160" y="182" fill="#FFFFFF" font-family="Space Grotesk" font-weight="600" font-size="26">Mission Lattice</text>
  <rect x="380" y="120" width="260" height="120" rx="20" fill="rgba(14, 18, 52, 0.9)" stroke="rgba(0, 245, 255, 0.28)" />
  <text x="400" y="154" fill="#00F5FF" font-family="Space Grotesk" font-size="14" letter-spacing="0.22em">IN FOCUS</text>
  <text x="400" y="182" fill="#FFFFFF" font-family="Space Grotesk" font-size="22" font-weight="600">Nebula launch sync</text>
  <text x="400" y="210" fill="#9EA8FF" font-family="Space Grotesk" font-size="14" opacity="0.75">Priority: High · Crew ready · Path stable</text>
</svg>
